<svg id="Capa_1" enable-background="new 0 0 512 512" height="512" viewBox="0 0 512 512" width="512" xmlns="http://www.w3.org/2000/svg"><g><g><g><path d="m394.001 104.907c-19.389 0-35.107-15.718-35.107-35.107v-38.396c0-2.761 2.239-5 5-5h60.215c2.761 0 5 2.239 5 5v38.396c-.001 19.389-15.719 35.107-35.108 35.107z" fill="#fee265"/><path d="m429.111 31.405v38.39c0 19.39-15.72 35.11-35.11 35.11-4.08 0-8-.7-11.64-1.98 13.67-4.81 23.46-17.82 23.46-33.13v-38.39c0-2.76-2.24-5-5-5h23.29c2.76 0 5 2.24 5 5z" fill="#fdd330"/><path d="m418.115 172.425h-48.228v-18.709c0-9.157 7.423-16.581 16.581-16.581h15.067c9.157 0 16.581 7.423 16.581 16.581v18.709z" fill="#fee265"/><path d="m418.111 153.715v18.71h-20.6v-18.71c0-8.22-5.97-15.03-13.81-16.35.9-.15 1.83-.23 2.77-.23h15.06c9.16 0 16.58 7.42 16.58 16.58z" fill="#fdd330"/></g><g><g><path d="m20.88 402.026h138.905v86.241h-138.905z" fill="#fb3a82"/><path d="m73.707 454.516v33.752h-52.827v-55.958h30.621c12.264 0 22.206 9.942 22.206 22.206z" fill="#fc5a95"/><path d="m164.81 409.285h-148.954c-4.615 0-8.356-3.741-8.356-8.356v-15.229c0-4.615 3.741-8.356 8.356-8.356h148.954c4.615 0 8.356 3.741 8.356 8.356v15.229c.001 4.615-3.741 8.356-8.356 8.356z" fill="#1c96f9"/></g><g><path d="m103.713 349.547h138.905v138.721h-138.905z" fill="#f98824"/><path d="m162.861 406.71v81.558h-59.148v-103.764h36.942c12.264 0 22.206 9.942 22.206 22.206z" fill="#fca62f"/><path d="m247.644 356.806h-148.954c-4.615 0-8.356-3.741-8.356-8.356v-15.229c0-4.615 3.741-8.356 8.356-8.356h148.954c4.615 0 8.356 3.741 8.356 8.356v15.229c0 4.614-3.741 8.356-8.356 8.356z" fill="#1c96f9"/></g><g><path d="m186.546 297.067h138.905v191.2h-138.905z" fill="#fddd45"/><path d="m244.128 356.038v132.23h-57.581v-154.435h35.376c12.263 0 22.205 9.941 22.205 22.205z" fill="#fde784"/><path d="m330.477 304.326h-148.954c-4.615 0-8.356-3.741-8.356-8.356v-15.229c0-4.615 3.741-8.356 8.356-8.356h148.954c4.615 0 8.356 3.741 8.356 8.356v15.229c0 4.615-3.741 8.356-8.356 8.356z" fill="#1c96f9"/></g><g><path d="m269.38 244.588h138.905v243.68h-138.905z" fill="#27d1b3"/><path d="m325.452 302.946v185.321h-56.072v-207.526h33.867c12.264 0 22.205 9.942 22.205 22.205z" fill="#64e0c4"/><path d="m413.31 251.847h-148.954c-4.615 0-8.356-3.741-8.356-8.356v-15.229c0-4.615 3.741-8.356 8.356-8.356h148.954c4.615 0 8.356 3.741 8.356 8.356v15.229c.001 4.614-3.741 8.356-8.356 8.356z" fill="#1c96f9"/></g><g><path d="m352.213 192.108h138.905v296.159h-138.905z" fill="#20b69f"/><path d="m352.213 192.108v31.451h87.056c12.673 0 22.947 10.274 22.947 22.947v241.762h28.902v-296.16z" fill="#17998c"/><g><path d="m496.144 199.367h-148.954c-4.615 0-8.356-3.741-8.356-8.356v-15.229c0-4.615 3.741-8.356 8.356-8.356h148.954c4.615 0 8.356 3.741 8.356 8.356v15.229c0 4.615-3.741 8.356-8.356 8.356z" fill="#1c96f9"/><path d="m504.5 175.778v15.233c0 4.618-3.744 8.353-8.353 8.353h-24.875c4.618 0 8.353-3.735 8.353-8.353v-15.233c0-4.609-3.735-8.353-8.353-8.353h24.875c4.609 0 8.353 3.744 8.353 8.353z" fill="#1785f8"/></g></g></g><path d="m479.942 167.426h-27.948c-2.761 0-5-2.239-5-5v-34.314c0-2.761 2.239-5 5-5h27.948c2.761 0 5 2.239 5 5v34.314c0 2.761-2.238 5-5 5z" fill="#fcb44d"/><path d="m484.94 128.112v34.31c0 2.76-2.24 5-5 5h-18.97c2.76 0 5-2.24 5-5v-34.31c0-2.76-2.24-5-5-5h18.97c2.76 0 5 2.24 5 5z" fill="#fca62f"/></g><g><g><path d="m425.095 239.732 9.668 13.758 16.073 4.944c2.775.853 3.862 4.201 2.119 6.522l-10.097 13.447.265 16.814c.046 2.903-2.802 4.971-5.548 4.031l-15.909-5.448-15.909 5.448c-2.746.94-5.594-1.128-5.548-4.031l.265-16.814-10.097-13.447c-1.743-2.321-.655-5.669 2.119-6.522l16.073-4.944 9.668-13.758c1.669-2.375 5.189-2.375 6.858 0z" fill="#fddd45"/></g><g><path d="m452.954 264.959-10.098 13.445.266 16.808c.05 2.905-2.797 4.978-5.545 4.038l-15.909-5.453-15.909 5.453c-2.747.941-5.594-1.132-5.553-4.038l.092-5.569c20.471-7.068 32.21-21.97 38.795-34.824l11.747 3.613c2.771.858 3.862 4.204 2.114 6.527z" fill="#f8c52d"/></g><g><path d="m287.842 63.174h.022l10.569-.032c4.143-.013 7.49-3.38 7.478-7.522-.013-4.135-3.368-7.478-7.499-7.478-.008 0-.016 0-.023 0l-10.569.032c-4.143.013-7.49 3.38-7.478 7.522.012 4.135 3.368 7.478 7.5 7.478z"/><path d="m289.894 30.168 9.168 5.491c1.207.723 2.535 1.067 3.847 1.067 2.55 0 5.035-1.301 6.441-3.647 2.128-3.554.973-8.16-2.581-10.288l-9.168-5.491c-3.555-2.129-8.158-.973-10.288 2.58-2.128 3.554-.973 8.16 2.581 10.288z"/><path d="m299.168 75.619-9.138 5.547c-3.541 2.149-4.669 6.762-2.52 10.303 1.411 2.325 3.884 3.609 6.418 3.609 1.326 0 2.669-.352 3.885-1.09l9.138-5.546c3.541-2.149 4.669-6.762 2.52-10.303-2.15-3.541-6.764-4.667-10.303-2.52z"/><path d="m489.613 48.142c-.008 0-.015 0-.023 0-4.131 0-7.486 3.343-7.499 7.478-.013 4.142 3.335 7.51 7.478 7.522l10.569.032h.022c4.132 0 7.487-3.343 7.5-7.478.013-4.142-3.335-7.51-7.478-7.522z"/><path d="m485.094 36.726c1.312 0 2.641-.344 3.847-1.067l9.168-5.491c3.554-2.128 4.709-6.734 2.581-10.288-2.13-3.554-6.736-4.708-10.288-2.58l-9.168 5.491c-3.554 2.128-4.709 6.734-2.581 10.288 1.406 2.347 3.891 3.647 6.441 3.647z"/><path d="m481.051 88.443 9.138 5.546c1.217.738 2.559 1.09 3.885 1.09 2.534 0 5.007-1.285 6.418-3.609 2.149-3.541 1.021-8.154-2.52-10.303l-9.138-5.547c-3.542-2.149-8.153-1.021-10.303 2.52-2.149 3.54-1.021 8.153 2.52 10.303z"/><path d="m496.144 159.926h-3.701v-31.814c0-6.893-5.607-12.5-12.5-12.5h-27.948c-6.893 0-12.5 5.607-12.5 12.5v31.814h-13.879v-6.209c0-13.278-10.803-24.081-24.081-24.081h-.033v-17.903c11.318-2.019 21.099-8.516 27.441-17.594h3.49c19.965 0 36.208-16.243 36.208-36.209v-15.506c0-4.142-3.357-7.5-7.5-7.5h-24.532v-3.52c0-6.893-5.607-12.5-12.5-12.5h-60.215c-6.893 0-12.5 5.607-12.5 12.5v3.52h-24.532c-4.143 0-7.5 3.358-7.5 7.5v15.506c0 19.966 16.243 36.209 36.209 36.209h3.489c6.343 9.078 16.124 15.574 27.441 17.594v17.903h-.033c-13.278 0-24.081 10.803-24.081 24.081v6.209h-15.197c-8.743 0-15.856 7.113-15.856 15.856v15.229c0 7.899 5.812 14.448 13.38 15.643v5.752h-80.356c-8.743 0-15.856 7.113-15.856 15.856v15.229c0 7.899 5.812 14.448 13.381 15.643v5.752h-80.357c-8.743 0-15.856 7.113-15.856 15.856v15.229c0 7.899 5.812 14.448 13.381 15.643v5.752h-24.583c-4.143 0-7.5 3.358-7.5 7.5s3.357 7.5 7.5 7.5h24.583v16.941h-80.362c-.473 0-.856-.384-.856-.856v-15.229c0-.472.384-.856.856-.856h20.38c4.143 0 7.5-3.358 7.5-7.5s-3.357-7.5-7.5-7.5h-20.38c-8.743 0-15.856 7.113-15.856 15.856v15.229c0 7.899 5.812 14.448 13.381 15.643v5.752h-80.358c-8.743-.002-15.856 7.111-15.856 15.854v15.229c0 7.899 5.812 14.448 13.381 15.643v71.696c0 4.142 3.357 7.5 7.5 7.5h392.47c4.143 0 7.5-3.358 7.5-7.5s-3.357-7.5-7.5-7.5h-53.638v-273.9h123.906v273.9h-34.873c-4.143 0-7.5 3.358-7.5 7.5s3.357 7.5 7.5 7.5h42.373c4.143 0 7.5-3.358 7.5-7.5v-281.614c7.569-1.195 13.381-7.744 13.381-15.643v-15.229c0-8.743-7.113-15.856-15.856-15.856zm-42.503-110.002v8.006c0 10.606-7.834 19.394-18.014 20.942.637-2.925.982-5.958.982-9.072v-19.876zm-119.28 8.006v-8.006h17.032v19.876c0 3.113.345 6.146.982 9.072-10.18-1.549-18.014-10.336-18.014-20.942zm32.033 11.87v-35.896h55.215v35.896c0 15.223-12.385 27.607-27.607 27.607s-27.608-12.384-27.608-27.607zm88.1 60.812h22.948v29.314h-22.948zm-77.107 23.104c0-5.007 4.074-9.081 9.081-9.081h15.066c5.007 0 9.081 4.074 9.081 9.081v6.209h-33.229v-6.209zm-31.054 22.066c0-.472.384-.856.856-.856h148.954c.473 0 .856.384.856.856v15.229c0 .472-.384.856-.856.856h-148.954c-.473 0-.856-.384-.856-.856zm-82.833 52.48c0-.472.384-.856.856-.856h80.356v16.941h-80.356c-.473 0-.856-.384-.856-.856zm-82.833 52.479c0-.472.384-.856.856-.856h80.357v16.941h-80.357c-.473 0-.856-.384-.856-.856zm-165.667 104.959c0-.472.384-.856.856-.856h80.357v16.941h-80.357c-.473 0-.856-.384-.856-.856zm13.381 31.085h67.833v63.982h-67.833zm82.833-52.48h67.834v116.462h-67.834zm158.167 32.585c-4.143 0-7.5 3.358-7.5 7.5v76.377h-67.833v-168.941h67.833v57.169c0 4.142 3.357 7.5 7.5 7.5s7.5-3.358 7.5-7.5v-109.649h67.832v221.421h-67.832v-76.377c0-4.142-3.358-7.5-7.5-7.5z"/><path d="m421.565 415.639c0 4.142 3.357 7.5 7.5 7.5h30.903c4.143 0 7.5-3.358 7.5-7.5s-3.357-7.5-7.5-7.5h-30.903c-4.142 0-7.5 3.358-7.5 7.5z"/><path d="m375.864 441.386c0 4.142 3.357 7.5 7.5 7.5h76.604c4.143 0 7.5-3.358 7.5-7.5s-3.357-7.5-7.5-7.5h-76.604c-4.142 0-7.5 3.358-7.5 7.5z"/><path d="m453.041 251.265-13.618-4.189-8.191-11.657c-2.187-3.112-5.763-4.969-9.565-4.969s-7.379 1.857-9.565 4.969l-8.191 11.657-13.617 4.188c-3.635 1.118-6.507 3.944-7.683 7.562-1.175 3.617-.514 7.592 1.771 10.633l8.555 11.393-.225 14.245c-.061 3.803 1.741 7.407 4.817 9.643 2.022 1.469 4.438 2.232 6.876 2.232 1.272 0 2.551-.208 3.783-.629l13.479-4.616 13.479 4.616c3.597 1.233 7.583.633 10.66-1.603 3.076-2.235 4.877-5.84 4.816-9.642l-.225-14.245 8.555-11.393c2.284-3.041 2.945-7.016 1.771-10.633-1.176-3.618-4.048-6.444-7.682-7.562zm-16.181 22.634c-1 1.331-1.528 2.957-1.502 4.622l.191 12.104-11.454-3.922c-.787-.27-1.608-.404-2.43-.404s-1.643.135-2.43.404l-11.454 3.922.191-12.104c.026-1.665-.502-3.291-1.502-4.622l-7.27-9.681 11.571-3.56c1.591-.489 2.974-1.494 3.932-2.856l6.961-9.906 6.96 9.905c.957 1.362 2.341 2.367 3.932 2.856l11.572 3.56z"/></g></g></g></svg>