<svg id="Capa_1" enable-background="new 0 0 512.445 512.445" height="512" viewBox="0 0 512.445 512.445" width="512" xmlns="http://www.w3.org/2000/svg"><g><path d="m117.057 396.183v-97.672h44.793c1.327 0 2.404 1.076 2.404 2.404v92.865c0 1.327-1.076 2.404-2.404 2.404h-44.793z" fill="#75cef9"/><path d="m117.057 298.511h20v97.672h-20z" fill="#6bbef6"/><path d="m117.057 400.42v-106.146c0-.492-.399-.891-.891-.891h-107.775c-.492 0-.891.399-.891.891v106.146c0 .492.399.891.891.891h107.775c.492 0 .891-.399.891-.891z" fill="#665e66"/><path d="m116.166 293.383h-39.109v45.478c0 23.444-19.005 42.45-42.45 42.45h-27.107v19.109c0 .492.399.891.891.891h107.775c.492 0 .891-.399.891-.891v-106.146c0-.492-.399-.891-.891-.891z" fill="#544f57"/><path d="m262.149 48.487-27.321-5.27c-1.18-.228-2.275.676-2.275 1.878v142.41c0 1.202 1.095 2.105 2.275 1.878l27.321-5.27c.9-.174 1.55-.961 1.55-1.878v-131.87c.001-.916-.65-1.704-1.55-1.878z" fill="#90d8f9"/><path d="m259.237 492.324h-22.22c-.944 0-1.71-.766-1.71-1.71v-86.589h25.64v86.589c0 .944-.766 1.71-1.71 1.71z" fill="#c6c1c8"/><path d="m263.7 52.316v127.968l123.035-31.992v-61.088c0-1.706-1.152-3.196-2.803-3.626z" fill="#75cef9"/><path d="m383.931 83.579-37.197-9.672v21.761c0 19.212-12.98 35.999-31.574 40.834l-51.46 13.381v30.401l123.035-31.992v-61.088c0-1.706-1.153-3.196-2.804-3.625z" fill="#6bbef6"/><path d="m498.931 133.732-112.196-29.174v68.308c0 2.832 2.675 4.9 5.416 4.188l106.78-27.765c8.019-2.086 8.019-13.472 0-15.557z" fill="#75cef9"/><path d="m260.947 48.255v-26.424c0-.944-.766-1.71-1.71-1.71h-22.22c-.944 0-1.71.766-1.71 1.71v21.478z" fill="#c6c1c8"/><path d="m235.307 189.291v82.821h25.64v-87.768z" fill="#c6c1c8"/><path d="m327.569 306.427h-5.348c7.999 0 14.484-6.485 14.484-14.484v-5.348c0-7.999-6.485-14.484-14.484-14.484h-36.615v-12.597c0-11.579-9.386-20.965-20.965-20.965h-3.694v33.561h-25.64v-33.071c-17.629 2.613-32.357 15.454-37.077 33.071l-4.522 16.876c-2.756 10.286-12.078 17.439-22.727 17.439h-6.727v81.455h26.563c6.514 0 12.91 1.994 18.131 5.889 8.631 6.438 19.332 10.254 30.929 10.254h68.734c6.376 0 11.546-5.169 11.546-11.546v-5.876c0-6.376-5.169-11.546-11.546-11.546h13.611c7.999 0 14.484-6.485 14.484-14.484v-5.348c0-7.999-6.485-14.484-14.484-14.484h5.348c7.999 0 14.484-6.484 14.484-14.484v-5.348c-.001-7.995-6.486-14.48-14.485-14.48z" fill="#f1d0a5"/><path d="m327.569 306.427h-5.348c7.999 0 14.484-6.485 14.484-14.484v-5.348c0-7.999-6.485-14.484-14.484-14.484h-42.066v62.98c0 27.025-21.908 48.932-48.932 48.932h-31.347c-11.597 0-22.297-3.815-30.929-10.254-1.478-1.103-3.051-2.053-4.693-2.849v16.96h26.563c6.542 0 12.947 2.035 18.197 5.938 8.62 6.408 19.295 10.204 30.862 10.204h68.734c6.376 0 11.546-5.169 11.546-11.546v-5.876c0-6.376-5.169-11.546-11.546-11.546h13.611c7.999 0 14.484-6.485 14.484-14.484v-5.348c0-7.999-6.485-14.484-14.484-14.484h5.348c7.999 0 14.484-6.485 14.484-14.484v-5.348c0-7.994-6.485-14.479-14.484-14.479z" fill="#f1b986"/><path d="m8.391 408.811h107.775c3.47 0 6.455-2.117 7.73-5.128h37.953c4.915 0 9.005-3.599 9.773-8.3h19.193c4.996 0 9.842 1.563 13.646 4.4 7.017 5.234 14.938 8.786 23.344 10.519v80.312c0 5.079 4.131 9.21 9.21 9.21h22.22c5.079 0 9.21-4.131 9.21-9.21v-18.167c0-4.142-3.358-7.5-7.5-7.5s-7.5 3.358-7.5 7.5v12.377h-10.64v-73.299h10.64v26.921c0 4.142 3.358 7.5 7.5 7.5s7.5-3.358 7.5-7.5v-26.921h40.163c10.502 0 19.046-8.544 19.046-19.046v-5.875c0-1.582-.194-3.12-.559-4.591 9.783-2.224 17.108-10.992 17.108-21.438v-5.348c0-4.223-1.197-8.171-3.269-11.524 5.236-4.022 8.617-10.345 8.617-17.443v-5.348c0-7.098-3.381-13.421-8.617-17.443 2.072-3.353 3.269-7.301 3.269-11.524v-5.348c0-12.122-9.862-21.983-21.984-21.983h-29.115v-5.097c0-14.405-10.756-26.345-24.659-28.211v-42.426c.74-.742 1.354-1.605 1.814-2.553l62.472-16.244c4.009-1.042 6.414-5.137 5.372-9.146-1.042-4.01-5.14-6.415-9.146-5.372l-57.757 15.019v-108.569l108.035 28.092v52.386l-16.025 4.167c-4.009 1.042-6.414 5.137-5.372 9.146 1.042 4.008 5.137 6.414 9.146 5.372l12.25-3.185v14.875c0 7.739 7.304 13.394 14.803 11.446l106.78-27.766c6.955-1.808 11.627-7.851 11.627-15.037s-4.672-13.229-11.627-15.038l-106.582-27.714v-11.555c0-5.119-3.46-9.594-8.416-10.884l-115.559-30.048c-.459-.947-1.073-1.81-1.813-2.552v-21.888c0-5.079-4.131-9.21-9.21-9.21h-22.22c-5.079 0-9.21 4.131-9.21 9.21v16.612c-1.759 1.758-2.753 4.135-2.753 6.651v142.41c0 2.516.994 4.893 2.753 6.651v38.824c-17.834 4.953-31.944 18.987-36.822 37.192l-4.521 16.875c-1.825 6.811-7.909 11.621-14.913 11.87-.927-4.506-4.924-7.906-9.701-7.906h-37.953c-1.276-3.011-4.26-5.128-7.73-5.128h-58.627c-4.142 0-7.5 3.358-7.5 7.5s3.358 7.5 7.5 7.5h52.017v92.928h-94.557v-92.928h7.54c4.142 0 7.5-3.358 7.5-7.5s-3.358-7.5-7.5-7.5h-14.149c-4.626 0-8.391 3.764-8.391 8.391v106.146c0 4.626 3.764 8.391 8.391 8.391zm488.652-267.821c.268.069.402.104.402.52s-.134.45-.402.52l-102.809 26.733v-54.504zm-218.938 118.526v5.097h-9.659v-18.014c5.578 1.646 9.659 6.814 9.659 12.917zm-35.298 5.096v-25.472c.001-.057.001-.115 0-.173v-43.486l10.64-2.053v71.183h-10.64zm13.393-209.634v122.644l-16.146 3.115v-128.874zm-2.753-27.356v11.548l-10.64-2.053v-9.496h10.64zm-52.494 263.307 4.521-16.875c3.116-11.63 11.494-20.883 22.333-25.258v15.816h-.5c-4.142 0-7.5 3.358-7.5 7.5s3.358 7.5 7.5 7.5h94.914c3.851 0 6.984 3.133 6.984 6.983v5.348c0 3.851-3.133 6.983-6.983 6.983h-29.606c-4.142 0-7.5 3.358-7.5 7.5s3.358 7.5 7.5 7.5h34.954c3.851 0 6.984 3.133 6.984 6.984v5.348c0 3.851-3.133 6.984-6.984 6.984h-34.954c-4.142 0-7.5 3.358-7.5 7.5s3.358 7.5 7.5 7.5h29.606c3.851 0 6.983 3.133 6.983 6.983v5.348c0 3.851-3.133 6.983-6.984 6.983h-29.605c-4.142 0-7.5 3.358-7.5 7.5s3.358 7.5 7.5 7.5h15.994c2.231 0 4.046 1.815 4.046 4.046v5.875c0 2.231-1.815 4.046-4.046 4.046h-68.734c-9.612 0-18.757-3.031-26.444-8.766-6.377-4.757-14.409-7.377-22.615-7.377h-19.062v-66.465c13.695-.338 25.636-9.694 29.198-22.986zm-44.2 97.754h-32.197v-82.672h32.197z"/></g></svg>